<?xml version="1.0" encoding="utf-8"?>
<!-- Generator: Adobe Illustrator 24.2.0, SVG Export Plug-In . SVG Version: 6.00 Build 0)  -->
<svg version="1.1" id="Layer_1" xmlns="http://www.w3.org/2000/svg" xmlns:xlink="http://www.w3.org/1999/xlink" x="0px" y="0px"
	 viewBox="0 0 1200 205" style="enable-background:new 0 0 1200 205;" xml:space="preserve">
<style type="text/css">
	.st0{fill:#AF5297;}
	.st1{fill:url(#SVGID_1_);}
	.st2{fill:url(#SVGID_2_);}
	.st3{fill:url(#SVGID_3_);}
</style>
<rect x="0" y="0.02" class="st0" width="1200.72" height="205"/>
<linearGradient id="SVGID_1_" gradientUnits="userSpaceOnUse" x1="-4.333486e-03" y1="111.6977" x2="1200.7157" y2="111.6977">
	<stop  offset="0" style="stop-color:#AF5297"/>
	<stop  offset="0.1924" style="stop-color:#A84E94"/>
	<stop  offset="0.513" style="stop-color:#A04A90"/>
	<stop  offset="0.7645" style="stop-color:#A44C92"/>
	<stop  offset="1" style="stop-color:#AF5297"/>
</linearGradient>
<path class="st1" d="M1200.72,106.69v33.1l-2.54,5.8c0.84,0.5,1.69,1,2.54,1.48v42.07c-2.78,1.97-6.15,3.13-9.8,3.13H3.54
	c-1.21,0-2.4-0.13-3.54-0.38V73.47c1.05-0.01,2.13,0.09,3.23,0.3l49.71,9.54c9.18,1.77,24.09,1.27,33.14-1.1l27.97-7.34
	c9.04-2.37,23.98-5.58,33.21-7.13l25.46-4.19l132.23-26.57c7.27-1.47,19.04-0.84,26.12,1.39l40.21,12.66
	c7.08,2.23,18.7,2.29,25.81,0.14l15.67-4.76c7.12-2.15,18.67-1.9,25.68,0.56l85.9,30.18c7.01,2.46,18.48,2.45,25.49-0.02
	l41.48-14.66c7.01-2.47,17.73-3.27,23.82-1.76c6.11,1.51,16.85,0.79,23.89-1.59l78.42-26.5c7.04-2.38,18.36-1.86,25.15,1.15
	l82.52,36.61c6.8,3.01,18.33,6.6,25.62,7.97l56.04,10.52c7.3,1.37,18.89,0.17,25.77-2.66l75.83-31.23
	c6.87-2.83,18.26-3.19,25.29-0.8L1200.72,106.69z"/>
<linearGradient id="SVGID_2_" gradientUnits="userSpaceOnUse" x1="431.1857" y1="146.46" x2="1200.7157" y2="146.46">
	<stop  offset="0.5149" style="stop-color:#A84F95"/>
	<stop  offset="0.9107" style="stop-color:#AF5297"/>
</linearGradient>
<path class="st2" d="M1200.72,131.81v73.21H431.19c0.07-0.26,0.16-0.52,0.25-0.78c1.41-4.08,4.79-8.08,9.99-11.97
	c16.23-12.17,50.22-23.38,97.75-33c45.89-9.29,104.43-17.1,171.8-22.86l3.79-10.15l10.03-28.89l12.82,36.89
	c1.98-0.14,3.96-0.29,5.95-0.43l9.86-28.42l9.41,27.08c68.57-4.52,144.41-7.03,224.17-7.03c21.15,0,42.01,0.18,62.55,0.53
	l7.73-21.96l7.63,21.61l13.09-37.74l13.56,39.03C1129.45,128.01,1165.98,129.65,1200.72,131.81z"/>
<linearGradient id="SVGID_3_" gradientUnits="userSpaceOnUse" x1="1.023727e-08" y1="154.7846" x2="780.2497" y2="154.7846">
	<stop  offset="0.0752" style="stop-color:#AF5297"/>
	<stop  offset="1" style="stop-color:#B75AA3"/>
</linearGradient>
<path class="st3" d="M777.44,203.18c-1.73-0.48-3.48-0.96-5.26-1.43c-44.05-11.78-103.1-22.78-172.88-32.23L593.84,154l-4.98,14.13
	c-0.09-0.01-0.17-0.02-0.26-0.03l-12.38-35.13l-11.32,32.13c-18.94-2.31-38.55-4.52-58.77-6.59l-10.55-34.34l-9.92,32.29
	c-67.82-6.56-141.9-11.72-219.61-15.01l-11.01-35.84l-10.75,34.96c-1.38-0.05-2.77-0.11-4.15-0.16l-3.38-17.75l-3.34,17.51
	c-83.09-2.91-162.01-3.36-233.4-1.64v65.42h780.25C779.32,203.7,778.39,203.44,777.44,203.18z"/>
</svg>
