<?xml version="1.0" encoding="utf-8"?>
<!-- Generator: Adobe Illustrator 16.0.3, SVG Export Plug-In . SVG Version: 6.00 Build 0)  -->
<!DOCTYPE svg PUBLIC "-//W3C//DTD SVG 1.1//EN" "http://www.w3.org/Graphics/SVG/1.1/DTD/svg11.dtd">
<svg version="1.1" id="Layer_1" xmlns="http://www.w3.org/2000/svg" xmlns:xlink="http://www.w3.org/1999/xlink" x="0px" y="0px"
	 width="200px" height="120px" viewBox="20 44 178 85" enable-background="new 0 0 200 120" xml:space="preserve">
<g>
	<polygon fill="#FFF1A2" points="34.264,47.082 34.264,71.809 45.71,71.809 38.482,84.332 21.74,84.332 21.74,34.557 38.482,34.557 
		45.716,47.082 	"/>
	<polygon fill="#FFF1A2" points="177.823,71.809 177.823,84.332 165.017,84.332 157.789,71.809 	"/>
	<polygon fill="#FFF1A2" points="177.823,34.557 177.823,47.082 157.782,47.082 165.017,34.557 	"/>
	<path fill="#FEDD10" d="M102.022,32.875c-14.678,0-26.571,11.895-26.571,26.569c0,14.675,11.894,26.57,26.571,26.57
		c14.674,0,26.569-11.895,26.569-26.57C128.592,44.769,116.696,32.875,102.022,32.875z M102.022,73.538
		c-7.786,0-14.095-6.31-14.095-14.094c0-7.784,6.309-14.094,14.095-14.094c7.781,0,14.093,6.31,14.093,14.094
		C116.115,67.229,109.804,73.538,102.022,73.538z"/>
	<polygon fill="#FEDD10" points="63.938,45.451 57.651,34.556 41.492,34.556 55.861,59.444 41.492,84.332 57.651,84.332 
		63.948,73.428 72.016,59.444 	"/>
	<polygon fill="#FEDD10" points="162.001,34.556 145.846,34.556 139.547,45.462 131.477,59.444 139.556,73.438 145.846,84.332 
		162.001,84.332 147.634,59.444 	"/>
</g>
</svg>
