<?xml version="1.0" encoding="utf-8"?>
<!-- Generator: Adobe Illustrator 16.0.3, SVG Export Plug-In . SVG Version: 6.00 Build 0)  -->
<!DOCTYPE svg PUBLIC "-//W3C//DTD SVG 1.1//EN" "http://www.w3.org/Graphics/SVG/1.1/DTD/svg11.dtd">
<svg version="1.1" id="Layer_1" xmlns="http://www.w3.org/2000/svg" xmlns:xlink="http://www.w3.org/1999/xlink" x="0px" y="0px"
	 width="300px" height="200px" viewBox="0 0 300 200" enable-background="new 0 0 300 200" xml:space="preserve">
<g>
	<polygon fill="#CF97C0" points="57.394,80.173 57.394,114.635 73.35,114.635 63.273,132.089 39.941,132.089 39.941,62.719 
		63.273,62.719 73.356,80.173 	"/>
	<polygon fill="#CF97C0" points="257.477,114.635 257.477,132.089 239.628,132.089 229.552,114.635 	"/>
	<polygon fill="#CF97C0" points="257.477,62.719 257.477,80.173 229.545,80.173 239.628,62.719 	"/>
	<path fill="#FEDD10" d="M151.831,60.373c-20.456,0-37.031,16.577-37.031,37.03s16.575,37.03,37.031,37.03
		c20.45,0,37.029-16.577,37.029-37.03S172.281,60.373,151.831,60.373z M151.831,117.047c-10.851,0-19.645-8.796-19.645-19.644
		c0-10.849,8.793-19.643,19.645-19.643c10.846,0,19.643,8.794,19.643,19.643C171.474,108.251,162.677,117.047,151.831,117.047z"/>
	<polygon fill="#B05397" points="98.755,77.899 89.991,62.716 67.471,62.716 87.495,97.403 67.471,132.091 89.991,132.091 
		98.768,116.892 110.012,97.403 	"/>
	<polygon fill="#B05397" points="235.424,62.716 212.907,62.716 204.13,77.916 192.883,97.403 204.143,116.906 212.907,132.091 
		235.424,132.091 215.4,97.403 	"/>
</g>
</svg>
