<?xml version="1.0" encoding="utf-8"?>
<!-- Generator: Adobe Illustrator 24.2.0, SVG Export Plug-In . SVG Version: 6.00 Build 0)  -->
<svg version="1.1" id="Layer_1" xmlns="http://www.w3.org/2000/svg" xmlns:xlink="http://www.w3.org/1999/xlink" x="0px" y="0px"
	 viewBox="0 0 1200 205" style="enable-background:new 0 0 1200 205;" xml:space="preserve">
<style type="text/css">
	.st0{fill:#AF5297;}
	.st1{fill:url(#SVGID_1_);}
	.st2{fill:url(#SVGID_2_);}
	.st3{fill:#B75AA3;}
</style>
<rect x="-0.35" y="0.02" class="st0" width="1200.35" height="205"/>
<linearGradient id="SVGID_1_" gradientUnits="userSpaceOnUse" x1="-0.3543" y1="123.6677" x2="1107.3251" y2="123.6677">
	<stop  offset="0.7208" style="stop-color:#A04A90"/>
	<stop  offset="0.9762" style="stop-color:#AF5297"/>
</linearGradient>
<path class="st1" d="M1107.33,129.58l-55.87,40.69l-93.43,28.03c-7.12,2.13-19.01,3.89-26.43,3.91l-268.23,0.6l-636.63,1.43
	c-7.42,0.02-15.61-5.72-18.2-12.76l-8.88-24.12V81.94L163.8,48.95c7.27-1.47,19.03-0.84,26.12,1.39L230.12,63
	c7.09,2.23,18.7,2.29,25.81,0.14l15.67-4.76c7.12-2.15,18.66-1.9,25.68,0.56l85.9,30.18c7.01,2.46,18.48,2.45,25.48-0.02
	l41.49-14.66c7.01-2.47,17.73-3.27,23.82-1.76c6.1,1.51,16.85,0.79,23.88-1.59l78.42-26.5c7.04-2.38,18.36-1.86,25.16,1.15
	l82.51,36.61c6.8,3.01,18.33,6.6,25.63,7.97l56.03,10.52c7.3,1.37,18.89,0.17,25.77-2.66l75.84-31.23
	c6.87-2.83,18.25-3.19,25.29-0.8L1107.33,129.58z"/>
<linearGradient id="SVGID_2_" gradientUnits="userSpaceOnUse" x1="303.5057" y1="146.46" x2="1073.0283" y2="146.46">
	<stop  offset="0.2818" style="stop-color:#A84F95"/>
	<stop  offset="0.9637" style="stop-color:#AF5297"/>
</linearGradient>
<path class="st2" d="M963.88,126.93L950.33,87.9l-13.1,37.74l-7.62-21.61l-7.74,21.96c-20.54-0.34-41.4-0.53-62.55-0.53
	c-79.76,0-155.59,2.51-224.17,7.03l-9.4-27.08l-9.87,28.42c-1.99,0.14-3.97,0.29-5.95,0.44l-12.82-36.89l-13.24,38.14H594
	c-71.88,5.84-134.2,13.98-182.51,23.76c-62.77,12.71-101.92,28.18-107.74,44.97c-0.09,0.26-0.18,0.52-0.24,0.78h769.52v-73.21
	C1038.29,129.65,1001.76,128.01,963.88,126.93z"/>
<path class="st3" d="M652.57,205.02H-0.35V139.6c65.79-1.9,139.2-1.17,216.52,2.59c72.99,3.55,142.26,9.46,204.73,17.08
	c93.73,11.42,172.16,26.68,224.92,43.54c1.49,0.47,2.95,0.95,4.4,1.43C651.01,204.5,651.79,204.76,652.57,205.02z"/>
<polygon class="st3" points="356.78,160.28 367.88,124.16 378.98,160.28 "/>
<polygon class="st3" points="399.14,162.29 412.46,124.5 425.78,162.29 "/>
<polygon class="st3" points="423.56,164.05 430.09,145.54 436.61,164.05 "/>
<polygon class="st3" points="116.23,141.73 127.33,105.61 138.43,141.73 "/>
<polygon class="st3" points="105.61,140.73 109.05,122.67 112.49,140.73 "/>
</svg>
