<?xml version="1.0" encoding="utf-8"?>
<!-- Generator: Adobe Illustrator 23.0.1, SVG Export Plug-In . SVG Version: 6.00 Build 0)  -->
<svg version="1.1" id="Layer_1" xmlns="http://www.w3.org/2000/svg" xmlns:xlink="http://www.w3.org/1999/xlink" x="0px" y="0px"
	 viewBox="0 0 591.86 70.07" style="enable-background:new 0 0 591.86 70.07;" xml:space="preserve">
<style type="text/css">
	.st0{fill:url(#SVGID_1_);}
</style>
<linearGradient id="SVGID_1_" gradientUnits="userSpaceOnUse" x1="0" y1="35.0374" x2="557.1588" y2="35.0374">
	<stop  offset="0" style="stop-color:#21BFCF"/>
	<stop  offset="1" style="stop-color:#8FC640"/>
</linearGradient>
<path class="st0" d="M72.45,1.61h27.44l-2.56,14.91h-7.79l-6.46,36.75h7.79l-2.66,14.81c-11.3,0-22.79,0-34.28,0l2.66-14.81h7.88
	l4.46-25.83L48.43,47.67h-1.9l-13.1-20.13l-4.46,25.73h7.98l-2.66,14.81c-11.58,0-22.88,0-34.28,0l2.66-14.81h7.79l6.46-36.75H9.12
	l2.56-14.91h26.59l12.91,22.31L72.45,1.61z M143.37,68.08l2.37-13.39l5.98-0.57l-1.04-5.79h-23.55l-3.51,5.89l6.55,0.47l-2.37,13.39
	H94.09l2.66-14.81h7.41l22.98-36.94h-7.5l2.56-14.72c11.11,0,23.93,0,35.13,0l14.05,51.65h7.31l-2.66,14.81H143.37z M147.65,33.61
	l-3.42-16.05l-8.93,16.05H147.65z M189.8,16.52l2.56-14.91c11.3,0,22.88,0,34.37,0l-2.56,14.91h-7.88l-6.27,35.61h16.14l2.56-10.54
	h16.43l-4.65,26.49h-59.34l2.66-14.81h7.12l6.46-36.75H189.8z M310.01,59.82c-8.83,7.31-18.14,10.16-28.68,10.25
	c-20.41,0.1-33.14-13.1-30.95-33.61C252.28,15.57,269.37,0,293.58,0c8.45,0,17.28,2.85,21.93,8.07l-3.42,19.75h-15.57l1.42-10.63
	c-2.18-0.85-4.84-1.04-7.03-1.04c-13.39,0-21.46,10.35-21.93,22.31c-0.38,8.83,5.7,14.81,15.19,14.81c5.51,0,11.68-1.99,17-6.55
	L310.01,59.82z M349.03,69.69c-19.18,0-32.28-10.35-32.28-28.58c0-25.16,18.71-41.02,43.39-41.02c19.18,0,31.81,10.54,31.81,28.58
	C391.95,54.31,374,69.69,349.03,69.69z M357.67,16.14c-12.15,0-21.74,9.49-21.74,21.93c0,9.21,5.51,15.57,14.81,15.57
	c12.63,0,22.12-9.5,22.12-22.41C372.86,22.03,367.26,16.14,357.67,16.14z M400.49,16.52l2.56-14.91c11.3,0,22.88,0,34.37,0
	l-2.56,14.91h-7.88l-6.27,35.61h16.14l2.56-10.54h16.43l-4.65,26.49h-59.34l2.66-14.81h7.12l6.46-36.75H400.49z M529.72,1.61h27.44
	l-2.56,14.91h-7.79l-6.46,36.75h7.79l-2.66,14.81c-11.3,0-22.79,0-34.28,0l2.66-14.81h7.88l4.46-25.83L505.7,47.67h-1.9l-13.1-20.13
	l-4.46,25.73h7.98l-2.66,14.81c-11.58,0-22.88,0-34.28,0l2.66-14.81h7.79l6.46-36.75h-7.79l2.56-14.91h26.59l12.91,22.31
	L529.72,1.61z"/>
<g>
	<path d="M590.93,11.4c0,5.36-3.57,10.09-9.98,10.09c-6.39,0-9.93-4.67-9.93-10.09c0-5.39,3.54-10.09,9.93-10.09
		C587.36,1.31,590.93,6.01,590.93,11.4z M580.95,20.28c5.5,0,8.68-3.95,8.68-8.88c0-4.95-3.18-8.88-8.68-8.88
		c-5.47,0-8.65,3.93-8.65,8.88C572.29,16.41,575.44,20.28,580.95,20.28z M577.16,6.01h4.7c4.51,0,4.65,6.25,0.3,6.5l3.48,3.87v0.22
		h-1.44l-3.37-3.98h-2.46v3.98h-1.22V6.01z M581.77,11.54c3.04,0,3.07-4.4,0.08-4.4h-3.48v4.4H581.77z"/>
</g>
</svg>
