<?xml version="1.0" encoding="utf-8"?>
<!-- Generator: Adobe Illustrator 24.2.0, SVG Export Plug-In . SVG Version: 6.00 Build 0)  -->
<svg version="1.1" id="Layer_1" xmlns="http://www.w3.org/2000/svg" xmlns:xlink="http://www.w3.org/1999/xlink" x="0px" y="0px"
	 viewBox="0 0 1024 205" style="enable-background:new 0 0 1024 205;" xml:space="preserve">
<style type="text/css">
	.st0{fill:#AF5297;}
	.st1{fill:#A04A90;}
	.st2{fill:#A84F95;}
	.st3{fill:#B75AA3;}
</style>
<rect x="0.05" y="0.02" class="st0" width="1024" height="205"/>
<path class="st1" d="M1024.05,120.27v50l-90.96,28.03c-6.93,2.13-18.51,3.89-25.73,3.91l-261.14,0.6l-619.8,1.43
	c-7.22,0.02-15.2-5.72-17.72-12.76l-8.65-24.12V81.94l159.81-32.99c7.08-1.47,18.53-0.84,25.43,1.39L224.43,63
	c6.9,2.23,18.21,2.29,25.13,0.14l15.26-4.76c6.93-2.15,18.17-1.9,25,0.56l83.63,30.18c6.82,2.46,17.99,2.45,24.81-0.02l40.39-14.66
	c6.82-2.47,17.26-3.27,23.19-1.76c5.94,1.51,16.4,0.79,23.25-1.59l76.35-26.5c6.85-2.38,17.87-1.86,24.49,1.15l80.33,36.61
	c6.62,3.01,17.85,6.6,24.95,7.97l54.55,10.52c7.11,1.37,18.39,0.17,25.09-2.66l73.83-31.23c6.69-2.83,17.77-3.19,24.62-0.8
	L1024.05,120.27z"/>
<path class="st2" d="M1024.05,131.81v73.21H322.91c0.06-0.26,0.14-0.52,0.22-0.78c5.31-16.79,40.98-32.26,98.17-44.97
	c92.31-20.51,240.7-33.81,408.03-33.81C898.32,125.46,964.1,127.72,1024.05,131.81z"/>
<path class="st3" d="M652.97,205.02H0.05V139.6c65.79-1.9,139.2-1.17,216.52,2.59c72.99,3.55,142.26,9.46,204.73,17.08
	c93.73,11.42,172.16,26.68,224.92,43.54c1.49,0.47,2.95,0.95,4.4,1.43C651.41,204.5,652.19,204.76,652.97,205.02z"/>
<polygon class="st2" points="954.31,132.33 969.73,87.9 985.16,132.33 "/>
<polygon class="st2" points="938.53,133.77 949.01,104.03 959.5,133.77 "/>
<polygon class="st2" points="603.28,135.51 616.52,97.37 629.77,135.51 "/>
<polygon class="st2" points="633.93,137.72 645.15,105.41 656.37,137.72 "/>
<polygon class="st3" points="366.45,160.55 376.06,129.28 385.67,160.55 "/>
<polygon class="st3" points="403.12,162.29 414.65,129.58 426.18,162.29 "/>
<polygon class="st3" points="420.96,164.05 427.49,145.54 434.01,164.05 "/>
</svg>
